<svg id="svg" version="1.1" xmlns="http://www.w3.org/2000/svg" xmlns:xlink="http://www.w3.org/1999/xlink" width="400" height="389.40000000000003" viewBox="0, 0, 400,389.40000000000003"><g id="svgg"><path id="path0" d="M180.100 17.412 C 168.335 18.998,161.798 27.186,165.740 35.400 C 170.871 46.090,194.236 42.615,197.294 30.708 C 199.483 22.182,191.352 15.895,180.100 17.412 M185.435 21.548 C 189.820 23.502,191.161 31.185,187.765 34.900 C 185.333 37.561,179.840 38.826,176.734 37.439 C 171.941 35.300,170.511 27.114,174.318 23.605 C 176.815 21.303,182.518 20.248,185.435 21.548 M154.900 23.134 C 151.043 24.249,148.775 25.047,148.856 25.261 C 149.138 26.013,151.244 33.820,151.179 33.871 C 151.135 33.905,149.480 34.502,147.500 35.198 C 145.520 35.894,142.597 36.977,141.005 37.604 L 138.111 38.745 136.859 35.323 C 135.010 30.268,134.983 30.200,134.781 30.200 C 134.546 30.200,128.560 32.808,128.329 33.011 C 128.206 33.120,136.585 54.207,136.889 54.550 C 136.958 54.628,142.478 52.187,142.686 51.987 C 142.845 51.834,141.389 47.515,139.784 43.374 L 139.425 42.449 142.763 41.146 C 146.953 39.510,152.176 37.710,152.319 37.853 C 152.379 37.912,153.013 40.062,153.730 42.630 C 154.446 45.197,155.068 47.335,155.113 47.379 C 155.206 47.472,161.190 45.677,161.362 45.505 C 161.486 45.381,156.226 23.180,156.024 22.972 C 155.956 22.902,155.450 22.975,154.900 23.134 M115.647 39.793 C 103.470 43.066,97.937 55.051,105.199 62.425 C 110.706 68.018,121.280 66.059,127.098 58.368 C 129.241 55.536,130.586 50.433,129.385 49.691 C 128.942 49.417,123.590 52.054,123.729 52.478 C 124.885 56.009,120.534 60.885,116.221 60.892 C 112.553 60.897,108.979 57.156,108.204 52.500 C 107.193 46.419,115.750 41.483,120.117 45.628 L 120.733 46.214 123.417 44.593 C 126.820 42.537,126.651 42.772,125.510 41.678 C 123.282 39.544,119.362 38.794,115.647 39.793 M208.200 52.323 C 207.705 52.363,205.950 52.490,204.300 52.605 C 137.033 57.272,78.254 101.900,57.521 164.048 C 37.450 224.214,56.178 291.570,104.500 333.009 L 105.500 333.867 105.634 328.752 C 105.782 323.129,106.236 316.299,106.802 311.200 L 107.168 307.900 105.719 306.400 C 93.448 293.697,81.547 272.205,75.428 251.700 C 59.968 199.897,75.066 151.222,118.514 112.790 C 144.491 89.812,172.894 77.064,204.800 74.063 C 209.469 73.624,223.588 73.560,227.900 73.959 C 241.814 75.246,255.623 78.302,264.952 82.161 L 266.003 82.595 265.952 70.770 L 265.900 58.944 265.000 58.672 C 256.177 56.002,243.060 53.662,230.900 52.586 C 228.472 52.372,210.188 52.159,208.200 52.323 M90.680 55.956 C 85.223 60.266,80.579 64.266,77.161 67.600 L 75.212 69.500 82.656 77.936 C 86.750 82.576,90.154 86.426,90.220 86.490 C 90.286 86.554,91.366 85.650,92.620 84.479 C 95.889 81.429,100.735 77.294,104.257 74.549 C 105.931 73.245,107.277 72.091,107.248 71.984 C 107.154 71.629,105.344 69.000,105.193 69.000 C 104.834 69.000,97.925 74.510,94.530 77.504 C 93.447 78.459,92.494 79.164,92.413 79.070 C 91.593 78.122,88.800 74.614,88.800 74.533 C 88.800 74.372,94.150 69.796,96.725 67.755 C 97.976 66.763,99.000 65.916,99.000 65.873 C 99.000 65.697,96.908 62.800,96.781 62.800 C 96.579 62.800,91.896 66.589,88.913 69.165 C 87.490 70.394,86.275 71.395,86.213 71.388 C 86.111 71.378,83.849 68.628,83.256 67.792 C 82.948 67.360,87.371 63.457,93.900 58.400 C 95.220 57.378,96.277 56.462,96.248 56.366 C 96.112 55.902,94.314 53.401,94.121 53.406 C 93.999 53.409,92.451 54.557,90.680 55.956 M286.000 133.500 L 286.000 200.800 262.300 200.800 L 238.600 200.800 238.600 183.283 C 238.600 170.614,238.539 165.787,238.380 165.840 C 238.258 165.881,232.453 171.079,225.480 177.392 L 212.800 188.870 212.800 223.419 L 212.800 257.968 214.050 258.080 C 214.738 258.141,219.800 258.329,225.300 258.496 C 230.800 258.664,235.863 258.848,236.550 258.906 L 237.800 259.011 237.800 240.806 L 237.800 222.600 261.200 222.600 L 284.600 222.600 284.600 241.600 L 284.600 260.600 285.256 260.600 C 285.616 260.600,291.027 260.784,297.281 261.008 C 303.534 261.233,308.707 261.360,308.775 261.291 C 308.844 261.223,308.927 225.579,308.960 182.083 C 308.994 138.588,309.064 103.000,309.116 103.000 C 311.219 103.000,320.556 110.770,326.931 117.826 C 361.177 155.725,375.759 206.959,364.123 248.500 C 364.093 248.610,363.953 249.105,363.813 249.599 C 363.673 250.094,363.527 250.634,363.490 250.799 C 363.452 250.965,363.197 251.814,362.921 252.686 C 362.646 253.559,362.467 254.346,362.522 254.436 C 362.578 254.526,362.518 254.600,362.388 254.600 C 362.252 254.600,362.197 254.768,362.258 255.000 C 362.324 255.252,362.284 255.352,362.150 255.269 C 362.013 255.185,361.978 255.292,362.050 255.569 C 362.122 255.846,362.086 255.953,361.950 255.869 C 361.813 255.785,361.778 255.892,361.850 256.169 C 361.912 256.406,361.895 256.559,361.813 256.508 C 361.620 256.389,361.195 257.755,361.322 258.086 C 361.375 258.223,361.279 258.451,361.109 258.592 C 360.939 258.734,360.800 259.013,360.800 259.213 C 360.800 259.413,360.704 259.636,360.586 259.708 C 360.469 259.781,360.421 259.966,360.480 260.120 C 360.539 260.274,360.495 260.400,360.382 260.400 C 360.269 260.400,360.228 260.484,360.291 260.586 C 360.355 260.689,360.309 260.833,360.190 260.906 C 360.070 260.980,360.023 261.171,360.084 261.331 C 360.146 261.493,360.108 261.567,359.998 261.499 C 359.826 261.392,359.705 261.800,359.776 262.250 C 359.789 262.332,359.700 262.400,359.579 262.400 C 359.457 262.400,359.409 262.535,359.472 262.700 C 359.536 262.865,359.510 263.000,359.415 263.000 C 359.320 263.000,359.186 263.148,359.117 263.328 C 359.013 263.599,359.043 263.613,359.287 263.411 C 359.521 263.217,361.388 263.232,368.231 263.483 C 377.376 263.818,377.241 263.828,377.278 262.832 C 377.290 262.506,377.357 262.274,377.427 262.317 C 377.497 262.360,377.601 262.216,377.659 261.997 C 377.728 261.731,377.686 261.645,377.531 261.738 C 377.359 261.842,377.357 261.804,377.524 261.588 C 377.735 261.317,378.282 259.817,378.249 259.600 C 378.241 259.545,378.311 259.407,378.405 259.294 C 378.499 259.180,378.631 258.820,378.699 258.494 C 378.766 258.167,378.844 257.790,378.871 257.656 C 378.899 257.521,378.984 257.349,379.061 257.272 C 379.137 257.196,379.200 256.884,379.200 256.578 C 379.200 256.273,379.280 255.974,379.377 255.914 C 379.475 255.854,379.624 255.466,379.709 255.052 C 379.795 254.638,379.891 254.210,379.924 254.100 C 380.052 253.670,381.381 248.497,381.375 248.447 C 381.370 248.398,381.442 248.050,381.695 246.900 C 396.789 178.152,363.979 108.053,300.365 73.139 C 295.786 70.625,286.695 66.200,286.111 66.200 C 286.050 66.200,286.000 96.485,286.000 133.500 M58.425 87.741 C 57.201 89.252,56.205 90.537,56.212 90.595 C 56.222 90.683,68.672 101.192,72.419 104.275 L 73.604 105.249 74.052 104.677 C 76.840 101.116,81.158 96.131,85.342 91.641 L 87.184 89.665 85.895 88.282 L 84.605 86.900 82.353 89.207 C 81.114 90.476,78.896 92.887,77.424 94.565 C 74.781 97.577,74.743 97.611,74.330 97.257 C 74.100 97.061,71.073 94.335,67.604 91.200 C 64.135 88.065,61.151 85.386,60.973 85.246 C 60.692 85.025,60.362 85.348,58.425 87.741 M50.337 98.448 C 46.550 103.821,39.174 115.443,39.207 115.985 C 39.223 116.253,58.677 127.668,58.749 127.452 C 59.113 126.361,65.460 116.393,68.562 112.041 C 69.683 110.469,70.600 109.100,70.600 109.000 C 70.600 108.681,67.789 106.530,67.620 106.720 C 66.786 107.656,58.946 119.263,58.749 119.853 C 58.687 120.038,54.633 117.603,53.855 116.913 C 53.608 116.694,56.535 111.955,59.693 107.462 L 60.985 105.625 59.662 104.585 C 57.790 103.114,58.129 102.856,54.255 108.700 C 52.359 111.560,50.691 114.067,50.548 114.272 C 50.158 114.834,45.937 112.106,46.281 111.514 C 46.704 110.784,54.013 99.887,54.852 98.736 L 55.700 97.572 55.000 96.992 C 54.615 96.673,53.924 96.138,53.464 95.804 L 52.629 95.196 50.337 98.448 M33.671 126.288 C 32.841 127.987,32.211 129.455,32.270 129.552 C 32.330 129.648,34.125 130.564,36.260 131.586 L 40.141 133.445 38.704 136.572 C 37.914 138.293,36.695 141.067,35.996 142.737 L 34.725 145.774 34.113 145.522 C 29.561 143.649,26.566 142.556,26.420 142.713 C 26.110 143.043,23.969 148.830,24.064 149.078 C 24.155 149.315,44.984 156.882,45.134 156.732 C 45.371 156.496,47.391 150.896,47.258 150.844 C 41.061 148.439,38.503 147.268,38.546 146.856 C 38.598 146.368,40.995 140.698,42.562 137.357 L 43.567 135.214 47.872 137.307 C 50.240 138.458,52.250 139.398,52.339 139.396 C 52.590 139.390,55.216 133.936,55.048 133.768 C 54.801 133.521,35.590 123.200,35.377 123.200 C 35.269 123.200,34.501 124.590,33.671 126.288 M127.600 165.000 L 127.600 174.000 146.400 174.000 L 165.200 174.000 165.200 215.200 C 165.200 254.303,165.218 256.400,165.550 256.404 C 165.743 256.405,170.760 256.584,176.700 256.801 C 182.640 257.018,187.746 257.196,188.046 257.197 L 188.591 257.200 188.650 260.950 C 188.683 263.012,188.730 244.653,188.755 220.150 L 188.800 175.600 202.450 175.594 L 216.100 175.588 222.000 169.852 C 225.245 166.697,229.783 162.290,232.085 160.058 L 236.270 156.000 181.935 156.000 L 127.600 156.000 127.600 165.000 M20.900 171.278 C 15.441 173.869,11.924 188.179,15.178 194.557 C 16.582 197.308,19.185 198.243,21.828 196.946 C 24.260 195.752,25.259 194.027,27.604 186.975 C 29.769 180.464,30.504 179.200,32.125 179.200 C 36.060 179.200,33.923 192.195,29.725 193.791 C 29.218 193.983,29.166 194.080,29.276 194.629 C 29.344 194.971,29.400 196.319,29.400 197.625 C 29.400 200.359,29.457 200.423,31.011 199.435 C 34.888 196.970,37.800 189.194,37.800 181.307 C 37.800 175.273,35.894 172.147,32.200 172.121 C 28.547 172.095,26.559 174.649,23.494 183.300 C 21.366 189.309,20.446 190.658,18.978 189.926 C 16.376 188.629,17.791 179.608,20.882 177.784 L 21.543 177.394 21.779 174.647 C 21.908 173.136,22.063 171.653,22.123 171.350 C 22.255 170.682,22.168 170.677,20.900 171.278 M20.453 201.903 C 16.380 202.788,12.950 206.569,11.564 211.700 C 10.920 214.085,10.920 220.565,11.563 222.888 C 15.578 237.380,32.842 233.941,34.195 218.380 C 35.149 207.406,29.009 200.044,20.453 201.903 M26.100 209.285 C 32.060 211.080,32.533 220.805,26.799 223.673 C 19.149 227.500,12.649 222.204,14.927 214.000 C 16.092 209.804,20.976 207.743,26.100 209.285 M22.400 236.081 C 16.565 237.395,12.981 244.098,13.790 252.185 C 14.119 255.475,16.582 267.778,17.011 268.269 C 17.156 268.436,38.543 262.110,38.865 261.805 C 38.956 261.720,38.670 260.041,38.230 258.075 C 37.789 256.109,37.149 253.060,36.807 251.300 C 34.589 239.893,29.473 234.489,22.400 236.081 M27.155 243.305 C 29.258 243.930,31.114 246.003,32.164 248.900 C 32.714 250.417,33.947 256.319,33.755 256.512 C 33.548 256.719,19.289 260.356,19.164 260.233 C 18.864 259.940,17.748 253.229,17.745 251.700 C 17.732 245.847,22.223 241.841,27.155 243.305 M29.850 272.561 C 23.992 274.616,19.200 276.380,19.200 276.483 C 19.200 276.980,21.295 283.200,21.462 283.200 C 21.904 283.200,42.800 274.921,42.800 274.746 C 42.800 274.153,40.942 268.802,40.739 268.813 C 40.608 268.820,35.708 270.507,29.850 272.561 M374.658 269.608 C 374.535 269.933,374.507 270.200,374.596 270.200 C 374.760 270.200,375.075 269.209,374.951 269.084 C 374.913 269.046,374.781 269.282,374.658 269.608 M39.800 283.680 C 39.035 283.907,24.246 290.318,24.022 290.519 C 23.960 290.574,26.535 297.159,26.693 297.351 C 26.717 297.379,30.190 295.732,34.413 293.691 C 38.872 291.536,42.435 289.933,42.911 289.867 C 44.598 289.636,45.675 290.859,47.611 295.206 C 48.197 296.523,48.764 297.600,48.869 297.600 C 49.020 297.600,51.480 296.317,51.763 296.091 C 51.865 296.010,50.087 291.763,49.285 290.171 C 46.459 284.559,43.546 282.566,39.800 283.680 M50.600 297.905 C 49.775 298.394,49.026 298.819,48.935 298.851 C 48.626 298.961,53.644 307.991,56.309 312.123 L 57.367 313.762 54.815 315.552 L 52.262 317.342 51.495 316.121 C 49.738 313.328,47.952 310.329,46.594 307.892 C 45.799 306.466,45.127 305.275,45.101 305.244 C 44.998 305.121,41.810 307.113,41.805 307.303 C 41.798 307.579,44.909 313.019,47.167 316.681 C 48.178 318.320,48.981 319.677,48.953 319.695 C 48.924 319.714,47.961 320.384,46.813 321.186 C 44.846 322.559,44.710 322.621,44.450 322.271 C 43.426 320.893,39.251 313.749,36.311 308.343 L 35.573 306.987 34.037 307.823 C 33.191 308.282,32.420 308.729,32.323 308.816 C 31.712 309.361,45.116 331.429,45.879 331.136 C 46.642 330.843,64.380 317.130,64.256 316.929 C 64.179 316.804,63.293 315.486,62.288 314.001 C 59.126 309.329,54.659 301.805,52.877 298.150 C 52.213 296.788,52.447 296.813,50.600 297.905 M339.789 323.950 L 339.100 324.700 339.850 324.011 C 340.263 323.632,340.600 323.294,340.600 323.261 C 340.600 323.108,340.431 323.252,339.789 323.950 M336.687 327.050 L 336.100 327.700 336.750 327.113 C 337.356 326.565,337.492 326.400,337.337 326.400 C 337.303 326.400,337.010 326.693,336.687 327.050 M65.471 334.484 L 58.242 340.965 57.753 340.433 C 57.120 339.743,54.425 336.359,52.830 334.250 C 52.144 333.343,51.508 332.600,51.417 332.600 C 51.275 332.600,49.042 334.299,48.527 334.799 C 47.873 335.433,67.204 357.800,68.406 357.800 C 68.490 357.800,69.116 357.171,69.797 356.403 L 71.036 355.006 67.382 351.214 C 65.373 349.129,63.655 347.291,63.564 347.129 C 63.442 346.910,65.130 345.156,70.250 340.183 C 74.018 336.524,77.100 333.418,77.100 333.280 C 77.100 333.089,72.886 327.995,72.732 328.001 C 72.715 328.002,69.447 330.919,65.471 334.484 " stroke="none" fill="#fbfcfc" fill-rule="evenodd"></path><path id="path1" d="M123.488 347.306 C 123.702 347.468,123.994 347.600,124.138 347.600 C 124.282 347.600,124.400 347.695,124.400 347.812 C 124.400 347.928,124.481 347.974,124.579 347.913 C 124.678 347.852,124.810 347.937,124.873 348.101 C 124.936 348.266,125.125 348.400,125.294 348.400 C 125.462 348.400,125.600 348.490,125.600 348.600 C 125.600 348.710,125.680 348.800,125.777 348.800 C 125.875 348.800,126.482 349.150,127.127 349.578 C 141.221 358.931,164.600 368.006,184.100 371.695 C 186.190 372.091,188.103 372.458,188.350 372.511 L 188.800 372.608 188.765 360.254 C 188.746 353.459,188.695 348.294,188.652 348.776 L 188.574 349.653 185.937 349.525 C 184.487 349.455,170.025 348.949,153.800 348.400 C 137.575 347.851,124.030 347.314,123.700 347.207 C 123.147 347.027,123.130 347.035,123.488 347.306 M252.950 351.762 C 252.648 351.797,252.400 351.920,252.400 352.035 C 252.400 352.149,252.274 352.194,252.120 352.135 C 251.965 352.076,251.786 352.081,251.721 352.146 C 251.656 352.211,251.354 352.287,251.051 352.314 C 249.983 352.409,248.899 352.644,248.843 352.792 C 248.812 352.874,248.564 352.899,248.293 352.848 C 248.022 352.796,247.800 352.831,247.800 352.927 C 247.800 353.022,247.553 353.111,247.250 353.124 C 246.809 353.144,244.137 353.578,241.300 354.090 C 241.080 354.130,240.495 354.219,240.000 354.289 C 239.505 354.358,238.875 354.451,238.600 354.496 C 237.878 354.613,236.747 354.761,234.700 355.006 C 233.710 355.124,232.630 355.260,232.300 355.308 C 226.436 356.160,206.950 356.706,205.280 356.065 C 205.042 355.973,205.000 357.351,205.000 365.170 L 205.000 374.382 205.750 374.541 C 207.019 374.810,227.146 374.730,230.500 374.443 C 253.575 372.465,273.805 367.017,293.000 357.611 C 298.601 354.867,300.500 353.791,300.188 353.538 C 300.140 353.499,289.885 353.128,277.400 352.713 C 264.915 352.298,254.565 351.911,254.400 351.852 C 253.999 351.708,253.611 351.684,252.950 351.762 " stroke="none" fill="#d7f0ec" fill-rule="evenodd"></path><path id="path2" d="M105.600 333.327 C 105.600 333.624,105.795 334.021,106.050 334.241 C 106.297 334.454,106.725 334.827,107.000 335.071 C 111.075 338.676,122.578 347.015,123.859 347.292 C 124.588 347.450,188.454 349.613,188.582 349.484 C 188.709 349.356,188.705 335.838,188.577 335.710 C 188.454 335.587,165.535 334.798,165.420 334.913 C 165.363 334.971,165.278 337.814,165.233 341.231 C 165.188 344.648,165.094 347.362,165.025 347.261 C 164.956 347.161,164.405 346.870,163.800 346.614 C 160.690 345.299,150.705 340.075,146.241 337.428 C 145.659 337.083,145.146 336.800,145.101 336.800 C 145.057 336.800,144.620 336.530,144.131 336.200 C 143.642 335.870,143.154 335.600,143.045 335.600 C 142.937 335.600,142.739 335.468,142.605 335.306 C 142.471 335.145,142.303 335.030,142.231 335.051 C 142.077 335.096,140.957 334.389,140.775 334.133 C 140.630 333.929,140.892 333.941,122.170 333.295 C 104.110 332.671,105.600 332.668,105.600 333.327 M287.538 339.780 C 286.747 340.153,286.070 340.536,286.033 340.630 C 285.997 340.723,285.834 340.800,285.671 340.800 C 285.508 340.800,284.908 341.017,284.338 341.282 C 278.261 344.108,268.749 347.571,261.500 349.597 C 260.400 349.904,259.275 350.245,259.000 350.354 C 258.725 350.463,258.433 350.563,258.350 350.576 C 258.268 350.589,258.178 350.608,258.150 350.617 C 258.123 350.626,257.920 350.656,257.700 350.683 C 256.588 350.820,254.209 351.525,254.267 351.700 C 254.308 351.826,262.844 352.191,277.217 352.683 C 302.050 353.533,300.377 353.441,299.979 353.937 C 299.806 354.153,299.966 354.098,300.400 353.792 C 300.785 353.522,301.145 353.297,301.200 353.293 C 301.403 353.278,302.304 352.734,302.420 352.557 C 302.486 352.456,302.673 352.354,302.837 352.330 C 303.434 352.242,313.859 345.816,315.054 344.799 C 315.189 344.684,316.088 344.047,317.050 343.385 C 318.013 342.722,318.800 342.094,318.800 341.990 C 318.800 341.885,318.935 341.800,319.100 341.800 C 319.265 341.800,319.400 341.710,319.400 341.600 C 319.400 341.490,319.538 341.400,319.706 341.400 C 319.875 341.400,320.064 341.265,320.128 341.100 C 320.191 340.935,320.359 340.800,320.500 340.800 C 320.641 340.800,320.809 340.665,320.872 340.500 C 320.963 340.265,320.819 340.200,320.208 340.200 C 319.311 340.200,291.389 339.235,289.938 339.154 C 289.185 339.112,288.661 339.248,287.538 339.780 " stroke="none" fill="#e4fcf4" fill-rule="evenodd"></path><path id="path3" d="M117.400 317.455 C 117.400 317.494,117.692 317.739,118.050 318.001 C 118.452 318.295,118.592 318.343,118.416 318.127 C 118.150 317.799,117.400 317.303,117.400 317.455 M106.129 320.650 C 105.936 323.684,105.574 332.642,105.641 332.698 C 105.674 332.724,112.855 332.983,121.600 333.272 C 130.345 333.561,138.108 333.844,138.850 333.900 C 140.247 334.006,140.625 333.787,139.638 333.443 C 139.329 333.335,138.946 333.121,138.788 332.967 C 138.398 332.587,137.112 331.689,137.049 331.752 C 136.990 331.811,133.188 329.264,131.000 327.700 C 127.450 325.162,123.290 322.078,122.314 321.259 C 121.882 320.897,121.404 320.600,121.252 320.600 C 121.101 320.600,121.032 320.510,121.100 320.400 C 121.168 320.290,121.124 320.200,121.003 320.200 C 120.881 320.200,120.561 319.979,120.291 319.709 C 119.656 319.074,114.064 318.601,107.179 318.600 L 106.259 318.600 106.129 320.650 M165.238 328.830 C 165.259 333.379,165.308 336.576,165.348 335.934 L 165.421 334.769 168.060 334.892 C 171.077 335.033,186.971 335.599,187.943 335.599 L 188.586 335.600 188.665 337.650 C 188.709 338.778,188.720 335.621,188.690 330.635 C 188.660 325.649,188.605 321.540,188.568 321.505 C 188.531 321.470,184.270 321.298,179.100 321.122 C 173.930 320.947,168.688 320.749,167.450 320.682 L 165.200 320.561 165.238 328.830 M338.495 325.062 C 337.127 326.539,337.056 326.869,338.400 325.500 C 338.886 325.005,339.197 324.605,339.092 324.612 C 338.986 324.619,338.718 324.821,338.495 325.062 M310.371 326.297 C 310.112 326.570,309.740 326.795,309.544 326.797 C 309.348 326.798,309.136 326.935,309.072 327.100 C 309.009 327.265,308.876 327.400,308.777 327.400 C 308.677 327.400,308.124 327.732,307.548 328.138 C 305.867 329.321,302.023 331.849,301.700 331.983 C 301.590 332.029,300.915 332.438,300.200 332.893 C 299.485 333.347,298.360 334.019,297.700 334.386 C 297.040 334.754,296.434 335.154,296.353 335.277 C 296.272 335.400,296.205 335.421,296.203 335.326 C 296.201 335.230,296.088 335.243,295.950 335.354 C 295.813 335.466,295.070 335.895,294.300 336.307 C 293.530 336.719,292.834 337.156,292.753 337.278 C 292.672 337.400,292.605 337.433,292.603 337.352 C 292.601 337.271,292.443 337.339,292.250 337.504 C 292.058 337.668,291.842 337.780,291.771 337.752 C 291.700 337.723,291.437 337.880,291.187 338.100 C 290.936 338.320,290.796 338.389,290.876 338.252 C 290.974 338.085,290.920 338.043,290.710 338.124 C 290.540 338.189,290.400 338.323,290.400 338.421 C 290.400 338.520,290.332 338.582,290.250 338.560 C 290.168 338.539,289.897 338.590,289.650 338.674 C 288.842 338.949,289.176 339.200,290.350 339.201 C 290.983 339.202,297.755 339.426,305.400 339.700 C 313.045 339.974,319.688 340.198,320.162 340.199 C 320.685 340.200,320.975 340.279,320.900 340.400 C 320.660 340.788,320.949 340.591,321.920 339.704 C 322.459 339.212,322.981 338.807,323.079 338.804 C 323.234 338.801,324.669 337.711,325.318 337.104 C 325.438 336.992,325.840 336.675,326.211 336.400 C 326.847 335.928,330.780 332.543,332.479 331.005 C 334.348 329.314,337.273 326.388,336.988 326.496 C 336.816 326.561,331.577 326.431,325.345 326.207 C 310.547 325.676,310.962 325.673,310.371 326.297 " stroke="none" fill="#e4fcfc" fill-rule="evenodd"></path><path id="path4" d="" stroke="none" fill="#f4100fc" fill-rule="evenodd"></path></g></svg>